HIERARCHY
ROOT Hips
{
	OFFSET	0.000000	0.000000	0.000000
	CHANNELS 6 Xposition Yposition Zposition Zrotation Xrotation Yrotation
	JOINT LeftHip
	{
		OFFSET	5.000000	0.000000	0.000000
		CHANNELS 3 Zrotation Xrotation Yrotation
		JOINT LeftKnee
		{
			OFFSET	0.000000	-17.000000	0.000000
			CHANNELS 3 Zrotation Xrotation Yrotation
			JOINT LeftAnkle
			{
				OFFSET	0.000000	-16.000000	0.000000
				CHANNELS 3 Zrotation Xrotation Yrotation
				End Site
				{
					OFFSET	0.000000	-4.000000	-2.500000
				}
			}
		}
	}
	JOINT RightHip
	{
		OFFSET	-5.000000	0.000000	0.000000
		CHANNELS 3 Zrotation Xrotation Yrotation
		JOINT RightKnee
		{
			OFFSET	0.000000	-17.000000	0.000000
			CHANNELS 3 Zrotation Xrotation Yrotation
			JOINT RightAnkle
			{
				OFFSET	0.000000	-16.000000	0.000000
				CHANNELS 3 Zrotation Xrotation Yrotation
				End Site
				{
					OFFSET	0.000000	-4.000000	-2.500000
				}
			}
		}
	}
	JOINT Chest
	{
		OFFSET	0.000000	4.000000	-1.000000
		CHANNELS 3 Zrotation Xrotation Yrotation
		JOINT LeftCollar
		{
			OFFSET	0.000000	14.000000	1.000000
			CHANNELS 3 Zrotation Xrotation Yrotation
			JOINT LeftShoulder
			{
				OFFSET	7.500000	0.000000	0.000000
				CHANNELS 3 Zrotation Xrotation Yrotation
				JOINT LeftElbow
				{
					OFFSET	0.000000	-11.000000	0.000000
					CHANNELS 3 Zrotation Xrotation Yrotation
					JOINT LeftWrist
					{
						OFFSET	0.000000	-10.000000	0.000000
						CHANNELS 3 Zrotation Xrotation Yrotation
						End Site
						{
							OFFSET	0.000000	-5.000000	0.000000
						}
					}
				}
			}
		}
		JOINT RightCollar
		{
			OFFSET	0.000000	14.000000	1.000000
			CHANNELS 3 Zrotation Xrotation Yrotation
			JOINT RightShoulder
			{
				OFFSET	-7.500000	0.000000	0.000000
				CHANNELS 3 Zrotation Xrotation Yrotation
				JOINT RightElbow
				{
					OFFSET	0.000000	-11.000000	0.000000
					CHANNELS 3 Zrotation Xrotation Yrotation
					JOINT RightWrist
					{
						OFFSET	0.000000	-10.000000	0.000000
						CHANNELS 3 Zrotation Xrotation Yrotation
						End Site
						{
							OFFSET	0.000000	-5.000000	0.000000
						}
					}
				}
			}
		}
		JOINT Neck
		{
			OFFSET	0.000000	14.000000	1.000000
			CHANNELS 3 Zrotation Xrotation Yrotation
			JOINT Head
			{
				OFFSET	0.000000	7.000000	0.000000
				CHANNELS 3 Zrotation Xrotation Yrotation
				End Site
				{
					OFFSET	0.000000	7.000000	0.000000
				}
			}
		}
	}
}
MOTION
Frames:    7
Frame Time: 0.016667
3.968556	37.320900	-6.386695	2.043829	-0.149753	38.121960	5.771087	-18.136126	10.802773	11.407783	50.575912	-12.641544	-6.618121	-2.869589	6.634084	3.637425	-0.676744	-11.686411	-3.341666	12.364995	8.179968	7.760621	-3.202299	-23.407141	0.480876	2.284321	8.332086	-0.163044	8.781703	0.024892	9.586011	-52.069439	-39.281864	-5.369314	-113.793205	-7.198370	-32.406883	-11.163589	-6.898916	-0.163044	8.781703	0.024892	-8.985935	-49.175491	40.101063	-60.069000	-75.784447	-62.229568	37.322372	6.270374	-14.065632	1.549145	21.388622	-0.529939	11.091686	-47.449688	-9.119450	
3.915615	37.310314	-6.555988	1.922744	-0.181156	38.415894	5.848175	-15.235591	10.346342	10.798654	48.784565	-12.177059	-6.776748	-2.907994	6.639513	3.637399	-0.966778	-11.849380	-3.347375	12.403784	8.181192	7.786923	-3.236477	-23.241833	0.481161	1.800923	8.009810	-0.162939	8.540006	0.024197	9.153548	-52.074448	-39.622982	-5.046171	-114.869614	-6.903916	-32.126209	-11.385246	-9.654388	-0.162939	8.540006	0.024197	-7.999999	-48.309570	37.705074	-67.380280	-76.571281	-69.329842	35.125534	5.665442	-15.119101	1.717754	21.498409	-0.587632	11.747316	-47.356941	-8.709233	
3.946631	37.314251	-6.581404	1.826316	-0.195438	38.623825	6.022484	-12.334849	9.896505	10.088446	46.516933	-11.652073	-6.935389	-2.946442	6.644727	3.637377	-1.160133	-11.850605	-3.384708	12.657146	8.189292	7.882367	-3.005475	-23.237865	0.160466	1.397965	7.342786	-0.162838	8.298306	0.023502	9.146119	-51.784470	-39.632423	-4.730371	-116.013931	-6.618728	-31.955023	-11.920644	-12.687388	-0.162838	8.298306	0.023502	-7.060837	-46.662178	35.141350	-76.599434	-77.180008	-78.309311	32.874088	5.047623	-15.887394	1.844505	21.571680	-0.631002	11.939878	-47.025635	-8.664617	
4.029849	37.317337	-6.748390	1.725786	-0.188195	38.847897	5.934622	-9.779842	9.438512	9.415617	44.174191	-11.173348	-6.966773	-3.413368	6.645117	3.492246	-1.546814	-11.856968	-3.434594	12.994910	8.200366	7.671882	-2.853097	-23.636156	0.000000	0.914551	6.848145	-0.162707	7.976042	0.022577	8.705821	-51.111153	-39.983562	-4.476130	-117.009254	-6.391213	-31.942217	-12.544455	-15.650411	-0.162707	7.976042	0.022577	-6.042746	-45.585827	32.923965	-86.417259	-77.441666	-87.888504	30.937143	4.151252	-16.793472	2.084750	21.569059	-0.713159	12.044511	-46.974796	-8.663336	
4.197687	37.323040	-6.893288	1.563539	-0.121985	39.235260	5.870398	-7.335352	9.007000	8.763721	41.707657	-10.729142	-6.644962	-3.430204	6.627476	3.274568	-1.740095	-11.865292	-3.446166	13.073127	8.202976	7.608208	-2.766451	-24.049004	-0.482015	0.350728	6.089327	-0.162707	7.976042	0.022577	8.691453	-50.144436	-40.002148	-4.259231	-117.916031	-6.198750	-31.150875	-12.937321	-17.947609	-0.162707	7.976042	0.022577	-4.964595	-44.208817	30.605808	83.433617	-102.668625	82.206085	28.779379	3.227688	-17.945332	2.244845	21.567135	-0.767901	11.788841	-46.798481	-8.279005	
4.276707	37.330597	-6.812582	1.443804	-0.019113	39.600361	5.613381	-5.338475	8.637210	8.123747	39.083187	-10.314290	-6.261678	-3.445944	6.443325	3.274489	-1.933439	-11.867742	-3.503942	13.462905	8.216236	7.681916	-2.502203	-24.210768	-0.964503	-0.051678	5.169379	0.243965	7.814872	-0.033173	8.943451	-48.885799	-39.822136	-4.138985	-118.443390	-6.092755	-30.235994	-13.332573	-19.341812	0.243965	7.814872	-0.033173	-4.141510	-43.024010	28.504665	73.557945	-103.163589	72.578995	26.602226	2.432734	-18.834396	2.494363	21.638634	-0.853241	11.815897	-46.571056	-7.806788	
4.104594	37.326691	-7.270146	1.346185	0.108267	40.007210	5.225619	-3.451463	8.294617	7.521942	36.419697	-9.945741	-6.100379	-3.463360	6.433778	2.983562	-2.899935	-12.055822	-3.543944	13.732018	8.225640	7.900497	-2.605865	-24.233486	-1.366916	-0.373372	4.255053	0.569251	7.814560	-0.077402	8.655123	-47.437588	-39.212536	-4.036897	-118.905739	-6.003187	-29.417011	-13.509895	-19.619286	0.569251	7.814560	-0.077402	-3.773649	-41.947815	26.393627	64.853966	-103.975853	64.116875	24.198168	1.411659	-19.950212	2.695036	21.635742	-0.921842	11.496637	-46.393864	-7.477624	
